<svg width="150" height="225" xmlns="http://www.w3.org/2000/svg">
 <!-- Created with Method Draw - http://github.com/duopixel/Method-Draw/ -->

 <g>
  <title>background</title>
  <rect x="-1" y="-1" width="152" height="227" id="canvas_background" fill="none"/>
  <g id="canvasGrid" display="none">
   <rect id="svg_1" width="580" height="400" x="1" y="1" stroke-width="0" fill="url(#gridpattern)"/>
  </g>
 </g>
 <g>
  <title>Layer 1</title>
  <metadata id="svg_13">image/svg+xml</metadata>
  <metadata id="svg_26">image/svg+xml</metadata>
  <metadata id="svg_45">image/svg+xml</metadata>
  <g id="svg_47" transform="rotate(-15 58.883605957031335,107.43739318847655) " stroke="null">
   <g id="svg_42" transform="matrix(2.7297554012374876,0,0,2.6285785996460915,-89.71544085446725,-50.57431966413198) " stroke="null">
    <path id="svg_44" d="m48.17997,85.66668c-0.39184,2.09197 1.79067,6.43638 6.18165,6.5783c5.30834,0.17158 8.69974,-3.88908 7.11975,-10.51611l-7.92379,-36.56935c-0.94326,-4.35326 -0.23526,-6.71442 0.2684,-8.12158c1.34373,-3.75419 4.70088,-5.30264 5.51819,-4.10073c0.46663,0.6862 1.59491,3.89479 -1.61686,9.64161c-2.50489,4.48201 -14.15929,10.35932 -15.01457,20.87719c-0.74042,9.14624 8.83399,15.90129 17.09756,13.24573c5.48642,-1.7631 8.3147,-10.08972 4.9188,-14.38475c-8.96182,-11.33462 -23.33436,6.01227 -9.4115,10.76451c-1.51396,-1.19112 -2.54592,-2.11345 -2.73806,-3.24078c-1.87075,-10.97578 14.63268,-8.07798 10.18599,2.33463c-1.82849,4.28169 -9.21415,5.10997 -13.42022,1.29008c-3.52342,-3.19991 -5.08688,-9.3642 -1.16594,-13.78954c5.3105,-5.99367 11.58045,-11.37423 13.24573,-19.57916c1.96925,-9.70258 -4.46024,-17.26684 -8.52503,-7.7229c-1.36394,3.20246 -1.87202,6.41724 -0.56603,12.5777l7.91755,37.34768c0.56683,2.67382 0.18736,6.35321 -2.30818,8.04426c-1.23618,0.83768 -5.61059,1.4142 -6.6808,-0.58538" stroke-miterlimit="4" stroke-width="0.1" fill-rule="nonzero" fill="black" stroke="black"/>
    <path d="m48.11921,85.98083a-3.73238,-3.79651 0 1 1 7.46477,0.14012a-3.73238,-3.79651 0 1 1 -7.46477,-0.14012z" id="svg_43" stroke-miterlimit="4" stroke-width="0.092139" fill="black" stroke="black"/>
   </g>
  </g>
  <g transform="rotate(24 77.065414428711,53.106182098388665) " stroke="null" id="svg_53">
   <g stroke="#000" stroke-width="20" fill="none" id="svg_51" transform="matrix(0.19528931975837052,0,0,0.19278993679543419,-530.7964455538504,-879.0649446879203) ">
    <path stroke="null" d="m3004.121749,4623.665026c-67,0 -120,54 -120,120c0,135 136,170 228,303c88,-132 229,-173 229,-303c0,-66 -54,-120 -120,-120c-48,0 -90,28 -109,69c-19,-41 -60,-69 -108,-69z" id="svg_52"/>
   </g>
  </g>
 </g>
</svg>