<svg width="150" height="225" xmlns="http://www.w3.org/2000/svg">
 <!-- Created with Method Draw - http://github.com/duopixel/Method-Draw/ -->

 <g>
  <title>background</title>
  <rect fill="none" id="canvas_background" height="227" width="152" y="-1" x="-1"/>
  <g display="none" overflow="visible" y="0" x="0" height="100%" width="100%" id="canvasGrid">
   <rect fill="url(#gridpattern)" stroke-width="0" y="1" x="1" height="400" width="580"/>
  </g>
 </g>
 <g>
  <title>Layer 1</title>

  <metadata transform="matrix(0.11453461432839518,0,0,0.11453461432839518,0,0) " id="svg_13">image/svg+xml</metadata>
  <metadata transform="matrix(3.160493874255522,0,0,3.160493874255522,0,0) " id="svg_26">image/svg+xml</metadata>

  <g stroke="null" transform="rotate(8 93.25165557861318,59.82452392578125) " id="svg_34">
   <g stroke="#f00" transform="matrix(0.19032014531878655,0,0,0.18283305859701288,-495.8392391396195,-844.0103515284276) " id="svg_32" fill="none" stroke-width="20">
    <path stroke="null" id="svg_33" d="m2986.762804,4731.998193c-67,0 -120,54 -120,120c0,135 136,170 228,303c88,-132 229,-173 229,-303c0,-66 -54,-120 -120,-120c-48,0 -90,28 -109,69c-19,-41 -60,-69 -108,-69z"/>
   </g>
  </g>
  <metadata id="svg_45">image/svg+xml</metadata>

  <metadata id="svg_64">image/svg+xml</metadata>

  <metadata id="svg_77">image/svg+xml</metadata>

  <g stroke="null" transform="rotate(-15 65.50001525878919,114.00003051757817) " id="svg_79">
   <g stroke="null" transform="matrix(2.6615978211697633,0,0,2.5413574634943443,-207.23991761065173,-225.94772019801218) " id="svg_74">
    <path stroke="#f00" fill="#f00" fill-rule="nonzero" stroke-width="0.1" stroke-miterlimit="4" d="m96.215459,159.319895c-0.39184,2.091967 1.790672,6.436378 6.18165,6.578301c5.308336,0.171574 8.699737,-3.889078 7.119749,-10.516109l-7.923795,-36.569358c-0.943257,-4.353257 -0.235257,-6.71442 0.268403,-8.121572c1.343735,-3.754196 4.700881,-5.302641 5.518193,-4.100737c0.466629,0.686205 1.594908,3.894798 -1.616859,9.641613c-2.504897,4.482014 -14.15929,10.359317 -15.014575,20.87719c-0.740418,9.146238 8.833989,15.90129 17.097566,13.245729c5.48642,-1.763101 8.314699,-10.08972 4.918791,-14.384753c-8.961817,-11.334616 -23.334355,6.012276 -9.411493,10.764513c-1.51396,-1.19112 -2.545918,-2.113446 -2.738064,-3.240779c-1.870745,-10.97578 14.632682,-8.07798 10.185993,2.334629c-1.828492,4.281695 -9.214152,5.109973 -13.420224,1.290083c-3.523416,-3.199912 -5.086882,-9.364202 -1.165942,-13.789545c5.310504,-5.993665 11.580455,-11.374228 13.245737,-19.579152c1.969249,-9.702587 -4.460243,-17.266847 -8.525037,-7.722901c-1.363934,3.202453 -1.872011,6.417239 -0.566021,12.577699l7.917543,37.347681c0.566837,2.673813 0.187362,6.353204 -2.308175,8.044259c-1.236187,0.83768 -5.61059,1.414194 -6.680799,-0.585382" id="svg_76"/>
    <path stroke="#f00" fill="#f00" stroke-width="0.092139" stroke-miterlimit="4" id="svg_75" d="m96.1547,159.634048a-3.732384,-3.796515 0 1 1 7.464768,0.140119a-3.732384,-3.796515 0 1 1 -7.464768,-0.140119z"/>
   </g>
  </g>
 </g>
</svg>