<svg width="150" height="225" xmlns="http://www.w3.org/2000/svg">
 <!-- Created with Method Draw - http://github.com/duopixel/Method-Draw/ -->

 <g>
  <title>background</title>
  <rect fill="none" id="canvas_background" height="227" width="152" y="-1" x="-1"/>
  <g display="none" overflow="visible" y="0" x="0" height="100%" width="100%" id="canvasGrid">
   <rect fill="url(#gridpattern)" stroke-width="0" y="1" x="1" height="400" width="580"/>
  </g>
 </g>
 <g>
  <title>Layer 1</title>

  <metadata transform="matrix(0.11453461432839518,0,0,0.11453461432839518,0,0) " id="svg_13">image/svg+xml</metadata>
  <g transform="rotate(15 88.27841186523426,59.49998092651367) " stroke="null" id="svg_15">
   <g stroke="null" transform="matrix(0.23129284837570507,0,0,0.24386070609617522,-301.8324299405233,-189.92594536009557) " id="svg_9">
    <rect fill="#e30a17" fill-rule="nonzero" transform="matrix(0.70710678,0.70710678,-0.70710678,0.70710678,0,0) " y="-568.951883" x="1815.275081" height="228.57143" width="228.57143" id="svg_12"/>
    <path fill="#e30a17" fill-rule="nonzero" d="m1723.950558,959.753128c0,64.69622 -52.44665,117.14286 -117.14286,117.14286c-64.69622,0 -117.14286,-52.44664 -117.14286,-117.14286c0,-64.69621 52.44664,-117.14286 117.14286,-117.14286c64.69621,0 117.14286,52.44665 117.14286,117.14286z" id="svg_11"/>
    <path fill="#e30a17" fill-rule="nonzero" id="svg_10" d="m1883.64137,958.252975c0,64.69622 -52.44665,117.14286 -117.14286,117.14286c-64.69622,0 -117.14286,-52.44664 -117.14286,-117.14286c0,-64.69621 52.44664,-117.14286 117.14286,-117.14286c64.69621,0 117.14286,52.44665 117.14286,117.14286z"/>
   </g>
  </g>
  <metadata transform="matrix(3.160493874255522,0,0,3.160493874255522,0,0) " id="svg_26">image/svg+xml</metadata>

  <g transform="rotate(-15 64.84197998046886,123) " id="svg_28">
   <g transform="matrix(3.19297743029512,0,0,3.19297743029512,-77.07186682747263,-3.118784836596972) " id="svg_23">
    <path fill="black" fill-rule="nonzero" stroke="black" stroke-width="0.1" stroke-miterlimit="4" d="m38.188812,65.052492c-0.39184,2.09197 1.79068,6.43638 6.18165,6.5783c5.30834,0.17158 8.69974,-3.88907 7.11975,-10.5161l-7.92379,-36.56936c-0.94326,-4.35326 -0.23526,-6.71442 0.2684,-8.12158c1.34374,-3.75419 4.70088,-5.30264 5.51819,-4.10073c0.46663,0.6862 1.59491,3.8948 -1.61685,9.64161c-2.5049,4.48202 -14.1593,10.35932 -15.01458,20.87719c-0.74042,9.14624 8.83399,15.90129 17.09757,13.24573c5.48642,-1.7631 8.31469,-10.08972 4.91879,-14.38475c-8.96182,-11.33462 -23.33436,6.01227 -9.4115,10.76451c-1.51396,-1.19112 -2.54591,-2.11345 -2.73806,-3.24078c-1.87075,-10.97578 14.63268,-8.07798 10.18599,2.33463c-1.82849,4.2817 -9.21415,5.10997 -13.42022,1.29008c-3.52342,-3.19991 -5.08688,-9.3642 -1.16594,-13.78954c5.3105,-5.99367 11.58045,-11.37423 13.24573,-19.57915c1.96925,-9.70259 -4.46024,-17.26685 -8.52503,-7.7229c-1.36394,3.20245 -1.87201,6.41723 -0.56602,12.57769l7.91754,37.34768c0.56684,2.67382 0.18736,6.35321 -2.30818,8.04426c-1.23618,0.83768 -5.61059,1.4142 -6.68079,-0.58538" id="svg_25"/>
    <path fill="black" stroke="black" stroke-width="0.092139" stroke-miterlimit="4" id="svg_24" d="m38.128057,65.366646a-3.73239,-3.796509 0 1 1 7.464768,0.140119a-3.73239,-3.796509 0 1 1 -7.464768,-0.140119z"/>
   </g>
  </g>
 </g>
</svg>
