<svg width="150" height="225" xmlns="http://www.w3.org/2000/svg">
 <!-- Created with Method Draw - http://github.com/duopixel/Method-Draw/ -->

 <g>
  <title>background</title>
  <rect fill="none" id="canvas_background" height="227" width="152" y="-1" x="-1"/>
  <g display="none" overflow="visible" y="0" x="0" height="100%" width="100%" id="canvasGrid">
   <rect fill="url(#gridpattern)" stroke-width="0" y="1" x="1" height="400" width="580"/>
  </g>
 </g>
 <g>
  <title>Layer 1</title>

  <metadata transform="matrix(0.11453461432839518,0,0,0.11453461432839518,0,0) " id="svg_13">image/svg+xml</metadata>
  <metadata transform="matrix(3.160493874255522,0,0,3.160493874255522,0,0) " id="svg_26">image/svg+xml</metadata>

  <metadata id="svg_45">image/svg+xml</metadata>

  <g stroke="null" transform="rotate(-15 58.883605957031335,107.43739318847655) " id="svg_47">
   <g stroke="null" transform="matrix(2.7297554012374876,0,0,2.6285785996460915,-89.71544085446725,-50.57431966413198) " id="svg_42">
    <path stroke="black" fill="black" fill-rule="nonzero" stroke-width="0.1" stroke-miterlimit="4" d="m48.179973,85.666682c-0.39184,2.091967 1.790672,6.436378 6.18165,6.578301c5.308336,0.171574 8.699737,-3.889078 7.119749,-10.516109l-7.923795,-36.569358c-0.943257,-4.353257 -0.235257,-6.71442 0.268403,-8.121572c1.343735,-3.754196 4.700881,-5.302641 5.518193,-4.100737c0.466629,0.686205 1.594908,3.894798 -1.616859,9.641613c-2.504897,4.482014 -14.15929,10.359317 -15.014575,20.87719c-0.740418,9.146238 8.833989,15.90129 17.097566,13.245729c5.48642,-1.763101 8.314699,-10.08972 4.918791,-14.384753c-8.961817,-11.334616 -23.334355,6.012276 -9.411493,10.764513c-1.51396,-1.19112 -2.545918,-2.113446 -2.738064,-3.240779c-1.870745,-10.97578 14.632682,-8.07798 10.185993,2.334629c-1.828492,4.281695 -9.214152,5.109973 -13.420224,1.290083c-3.523416,-3.199912 -5.086882,-9.364202 -1.165942,-13.789545c5.310504,-5.993665 11.580455,-11.374228 13.245737,-19.579152c1.969249,-9.702587 -4.460243,-17.266847 -8.525037,-7.722901c-1.363934,3.202453 -1.872011,6.417239 -0.566021,12.577699l7.917543,37.347681c0.566837,2.673813 0.187362,6.353204 -2.308175,8.044259c-1.236187,0.83768 -5.61059,1.414194 -6.680799,-0.585382" id="svg_44"/>
    <path stroke="black" fill="black" stroke-width="0.092139" stroke-miterlimit="4" id="svg_43" d="m48.119213,85.980835a-3.732384,-3.796515 0 1 1 7.464768,0.140119a-3.732384,-3.796515 0 1 1 -7.464768,-0.140119z"/>
   </g>
  </g>
  <g stroke="null" transform="rotate(6 90.49991607666017,54.50000762939451) " id="svg_53">
   <g stroke="#000" transform="matrix(0.19528931975837052,0,0,0.19278993679543419,-530.7964455538504,-879.0649446879203) " id="svg_51" fill="none" stroke-width="20">
    <path stroke="null" id="svg_52" d="m3072.915288,4630.894399c-67,0 -120,54 -120,120c0,135 136,170 228,303c88,-132 229,-173 229,-303c0,-66 -54,-120 -120,-120c-48,0 -90,28 -109,69c-19,-41 -60,-69 -108,-69z"/>
   </g>
  </g>
 </g>
</svg>